<svg width="44" height="44" viewBox="0 0 44 44" fill="none" xmlns="http://www.w3.org/2000/svg">
<mask id="mask0_869_466" style="mask-type:alpha" maskUnits="userSpaceOnUse" x="0" y="0" width="44" height="44">
<rect x="0.678955" y="0.815765" width="43.1011" height="43.1011" fill="#D9D9D9"/>
</mask>
<g mask="url(#mask0_869_466)">
<path d="M15.0464 29.5498H24.0258V20.5704H15.0464V29.5498ZM15.0464 16.9786H36.597V7.99922H15.0464V16.9786ZM27.6176 29.5498H36.597V20.5704H27.6176V29.5498ZM15.0464 33.1415C14.0587 33.1415 13.2131 32.7898 12.5097 32.0865C11.8063 31.3831 11.4546 30.5375 11.4546 29.5498V7.99922C11.4546 7.01148 11.8063 6.16592 12.5097 5.46254C13.2131 4.75915 14.0587 4.40746 15.0464 4.40746H36.597C37.5847 4.40746 38.4303 4.75915 39.1336 5.46254C39.837 6.16592 40.1887 7.01148 40.1887 7.99922V29.5498C40.1887 30.5375 39.837 31.3831 39.1336 32.0865C38.4303 32.7898 37.5847 33.1415 36.597 33.1415H15.0464ZM7.86288 40.3251C6.87514 40.3251 6.02958 39.9734 5.3262 39.27C4.62281 38.5666 4.27112 37.721 4.27112 36.7333V11.591H7.86288V36.7333H33.0052V40.3251H7.86288Z" fill="#5094F7"/>
</g>
</svg>
