<svg width="24" height="25" viewBox="0 0 24 25" fill="none" xmlns="http://www.w3.org/2000/svg">
<path fill-rule="evenodd" clip-rule="evenodd" d="M12.1879 1.918C10.1452 1.9176 8.14818 2.52293 6.44943 3.65743C4.75068 4.79193 3.42647 6.40467 2.64424 8.29172C1.86201 10.1788 1.65688 12.2554 2.0548 14.259C2.45271 16.2626 3.4358 18.1033 4.87976 19.5482C6.32372 20.9932 8.1637 21.9775 10.1671 22.3768C12.1704 22.776 14.2472 22.5723 16.1347 21.7914C18.0223 21.0104 19.636 19.6873 20.7716 17.9893C21.9073 16.2913 22.5139 14.2948 22.5149 12.252C22.5131 9.51303 21.4247 6.88668 19.4886 4.94928C17.5525 3.01188 14.9269 1.92171 12.1879 1.918ZM12.1879 3.21C13.9752 3.20941 15.7225 3.73879 17.2089 4.7312C18.6953 5.72362 19.8541 7.1345 20.5387 8.78546C21.2233 10.4364 21.403 12.2533 21.055 14.0064C20.7071 15.7594 19.8471 17.3699 18.5839 18.6343C17.3207 19.8986 15.7109 20.76 13.9581 21.1095C12.2054 21.459 10.3883 21.281 8.73678 20.5978C7.08523 19.9147 5.67332 18.7572 4.67958 17.2716C3.68585 15.7861 3.15493 14.0393 3.15394 12.252C3.15711 9.85701 4.10993 7.56102 5.80344 5.8675C7.49696 4.17399 9.79295 3.22117 12.1879 3.218V3.21ZM11.4879 6.901H12.8469L12.6979 15.028H11.6369L11.4879 6.901ZM12.8539 17.598H11.4999V16.226H12.8539V17.598Z" fill="#EB1C2E"/>
</svg>
