<svg width="22" height="23" viewBox="0 0 22 23" fill="none" xmlns="http://www.w3.org/2000/svg">
<path d="M16.4379 4.41309C15.7598 4.41309 15.2051 4.97818 15.2051 5.66886C15.2051 6.35954 15.7598 6.93719 16.4379 6.93719C17.1159 6.93719 17.683 6.37209 17.683 5.66886C17.683 4.96563 17.1282 4.41309 16.4379 4.41309Z" fill="white"/>
<path d="M11.2023 6C8.32995 6 6 8.37341 6 11.2994C6 14.2253 8.32995 16.5987 11.2023 16.5987C14.0747 16.5987 16.4046 14.2253 16.4046 11.2994C16.4046 8.37341 14.0747 6 11.2023 6ZM11.2023 14.7025C9.36548 14.7025 7.87382 13.183 7.87382 11.3119C7.87382 9.44082 9.36548 7.92134 11.2023 7.92134C13.0392 7.92134 14.5308 9.44082 14.5308 11.3119C14.5308 13.183 13.0392 14.7025 11.2023 14.7025Z" fill="white"/>
<path d="M15.0572 22.0943H6.62505C3.12396 22.0943 0.276245 19.1935 0.276245 15.6271V7.03755C0.276245 3.47115 3.12396 0.570312 6.62505 0.570312H15.0572C18.5583 0.570312 21.406 3.47115 21.406 7.03755V15.6271C21.406 19.1935 18.5583 22.0943 15.0572 22.0943ZM6.62505 2.59211C4.22113 2.59211 2.26102 4.58879 2.26102 7.03755V15.6271C2.26102 18.0758 4.22113 20.0725 6.62505 20.0725H15.0572C17.4612 20.0725 19.4213 18.0758 19.4213 15.6271V7.03755C19.4213 4.58879 17.4612 2.59211 15.0572 2.59211H6.62505Z" fill="white"/>
</svg>
