<svg width="18" height="18" viewBox="0 0 18 18" fill="none" xmlns="http://www.w3.org/2000/svg">
<path d="M0.771574 5.91634H4.26034V17.3439H0.771574V5.91634ZM2.52212 0.240234C3.64395 0.240234 4.54387 1.15695 4.54387 2.29971C4.54387 3.44246 3.64395 4.35918 2.52212 4.35918C1.40029 4.35918 0.500366 3.4299 0.500366 2.29971C0.500366 1.16951 1.40029 0.240234 2.52212 0.240234Z" fill="white"/>
<path d="M6.4541 5.91627H9.79493V7.47343H9.84424C10.3127 6.56927 11.4468 5.62744 13.1481 5.62744C16.6738 5.62744 17.3272 7.9883 17.3272 11.0649V17.3313H13.8384V11.7807C13.8384 10.4496 13.8138 8.75432 12.0263 8.75432C10.2387 8.75432 9.93053 10.1985 9.93053 11.6928V17.3438H6.44177V5.91627H6.4541Z" fill="white"/>
</svg>
