<svg width="218" height="54" viewBox="0 0 218 54" fill="none" xmlns="http://www.w3.org/2000/svg">
<g clip-path="url(#clip0_869_47)">
<path d="M18.609 20.7501C20.9349 20.7501 23.0645 21.6832 24.614 23.1602C26.3089 21.685 28.3912 20.7519 30.7171 20.7519C35.7545 20.7519 39.8227 24.9268 39.8227 30.033V40.1992C39.8227 41.8699 38.4678 43.2438 36.8693 43.2438C35.127 43.2438 33.7704 41.8699 33.7704 40.1992V30.033C33.7704 28.2664 32.4138 26.8925 30.7188 26.8925C29.1203 26.8925 27.7146 28.2646 27.7146 30.033V40.1992C27.7146 41.8699 26.358 43.2438 24.6157 43.2438C22.9681 43.2438 21.6132 41.8699 21.6132 40.1992V30.033C21.6132 28.2664 20.2566 26.8925 18.609 26.8925C16.8667 26.8925 15.5101 28.2646 15.5101 30.033V40.1974C15.5101 41.8681 14.1535 43.242 12.5076 43.242C10.8618 43.242 9.45605 41.8681 9.45605 40.1974V30.0312C9.45605 24.925 13.5242 20.7501 18.609 20.7501Z" fill="#1D4782"/>
<path d="M53.7363 20.7519C59.8394 20.7519 64.7787 25.7621 64.7787 31.9987V40.201C64.7787 41.8717 63.5202 43.2455 61.7272 43.2455C60.6615 43.2455 59.7904 42.707 59.2558 41.8237C57.5608 42.7052 55.7204 43.2455 53.7346 43.2455C47.6332 43.2455 42.6431 38.2388 42.6431 32.0005C42.6431 25.7621 47.6314 20.7537 53.7346 20.7537L53.7363 20.7519ZM53.7363 26.8925C50.9266 26.8925 48.6989 29.1994 48.6989 31.9987C48.6989 34.798 50.9266 37.1067 53.7363 37.1067C56.546 37.1067 58.7247 34.8495 58.7247 31.9987C58.7247 29.1479 56.4478 26.8925 53.7363 26.8925Z" fill="#1D4782"/>
<path d="M78.7377 20.7519C84.7935 20.7519 89.7328 25.7621 89.7328 31.9987C89.7328 38.2353 84.7935 43.2437 78.7377 43.2437C72.6819 43.2437 67.5989 38.2371 67.5989 31.9987C67.5989 25.7603 72.5382 20.7519 78.7377 20.7519ZM78.7377 26.8925C75.8807 26.8925 73.702 29.1994 73.7002 31.9987C73.7002 34.8477 75.8807 37.1067 78.7377 37.1067C81.5947 37.1067 83.6787 34.8495 83.6787 31.9987C83.6787 29.1479 81.4492 26.8925 78.7377 26.8925Z" fill="#5094F7"/>
<path d="M103.646 20.7519C108.925 20.7519 113.334 24.534 114.447 29.594C115.029 32.2973 114.207 34.1635 110.911 34.1635H99.0451C99.8689 35.8804 101.613 37.1085 103.646 37.1085C105.003 37.1085 106.261 36.5202 107.134 35.6333C107.763 35.045 108.538 34.702 109.313 34.702C110.137 34.702 110.911 35.045 111.446 35.6333C112.655 36.8117 112.655 38.7276 111.446 40.0037C109.509 42.0174 106.699 43.2437 103.648 43.2437C97.4974 43.2437 92.5564 38.2371 92.5564 31.9987C92.5564 25.7603 97.4957 20.7519 103.648 20.7519H103.646ZM103.646 26.8925C101.613 26.8925 99.8707 28.1686 99.0451 29.937H108.151C107.376 28.1686 105.632 26.8925 103.646 26.8925Z" fill="#1D4782"/>
<path d="M127.706 20.7501C133.324 20.7501 137.925 25.4173 137.929 31.1634V40.201C137.929 41.8717 136.525 43.2455 134.877 43.2455C133.229 43.2455 131.825 41.8717 131.825 40.201V31.1634C131.825 28.7569 129.936 26.8907 127.708 26.8907C125.48 26.8907 123.542 28.7569 123.542 31.1634V40.201C123.542 41.8717 122.185 43.2455 120.49 43.2455C118.795 43.2455 117.439 41.8717 117.439 40.201V31.1634C117.439 25.4173 122.04 20.7501 127.706 20.7501Z" fill="#1D4782"/>
<path d="M3.19174 20.7501C4.93574 20.7501 6.29062 22.1755 6.29062 23.8444V40.1992C6.29062 41.8698 4.93398 43.2437 3.19174 43.2437C1.59322 43.2437 0.1875 41.8698 0.1875 40.1992V23.8444C0.1875 22.1737 1.59146 20.7501 3.19174 20.7501Z" fill="#1D4782"/>
<path d="M3.24437 13.0401C5.13385 13.0401 6.63421 14.5153 6.63421 16.3797C6.63421 18.2441 5.13209 19.769 3.24437 19.769C1.35664 19.769 0 18.2476 0 16.3814C0 14.5153 1.40396 13.0419 3.24437 13.0419V13.0401Z" fill="#1D4782"/>
<path d="M143.997 20.7501C145.741 20.7501 147.096 22.1755 147.096 23.8444V40.1992C147.096 41.8698 145.739 43.2437 143.997 43.2437C142.398 43.2437 140.992 41.8698 140.992 40.1992V23.8444C140.992 22.1737 142.396 20.7501 143.997 20.7501Z" fill="#1D4782"/>
<path d="M143.997 13.0401C145.886 13.0401 147.386 14.5153 147.386 16.3797C147.386 18.2441 145.884 19.769 143.997 19.769C142.109 19.769 140.752 18.2458 140.752 16.3797C140.752 14.5135 142.156 13.0401 143.997 13.0401Z" fill="#1D4782"/>
<path d="M79.0829 47.8612C80.7778 47.8612 82.329 46.9299 83.2475 45.5542C83.8785 44.6211 84.846 44.0311 85.8626 44.0311C86.3937 44.0311 86.9265 44.2266 87.412 44.5216C88.8651 45.5045 89.3015 47.3706 88.3813 48.844C86.3937 51.9383 82.9565 54 79.0812 54C75.2058 54 71.6232 51.9365 69.6373 48.844C68.7661 47.3706 69.1518 45.5045 70.6065 44.5216C71.1394 44.2266 71.6722 44.0311 72.2051 44.0311C73.2217 44.0311 74.1419 44.6194 74.8202 45.5542C75.6913 46.9299 77.2898 47.8612 79.0812 47.8612H79.0829Z" fill="#5094F7"/>
<path d="M164.639 47.2978C159.388 47.2978 154.282 44.1608 151.898 39.4456C149.404 34.9277 149.262 29.2421 151.53 24.5926C154.159 18.6706 160.448 15.0343 166.551 15.7274C168.53 7.59799 175.758 1.13569 184.2 0.135068C190.878 -0.629175 197.728 1.89283 202.08 6.71822C205.352 10.2497 207.385 15.1071 208.12 21.1571C212.079 22.2164 215.352 24.9268 216.799 28.4014C218.815 32.6776 218.258 38.0007 215.376 41.9747C213.008 45.3214 208.812 47.3564 204.416 47.2693C196.878 47.2853 189.209 47.2871 181.795 47.2889C176.134 47.2889 170.472 47.2906 164.812 47.2978C164.755 47.2978 164.695 47.2978 164.637 47.2978H164.639ZM165.114 18.2601C160.502 18.2601 155.842 21.2246 153.87 25.6839L153.849 25.7301C151.94 29.6295 152.058 34.4034 154.157 38.189L154.182 38.2353C156.152 42.1525 160.418 44.7438 164.797 44.6851C170.472 44.678 176.135 44.6762 181.797 44.6762C189.214 44.6762 196.885 44.6727 204.425 44.6567H204.453C208.015 44.7278 211.401 43.1122 213.294 40.4373C215.599 37.2595 216.065 32.8696 214.466 29.4998L214.438 29.4376C213.215 26.473 210.249 24.1981 206.698 23.5014L205.757 23.3165L205.662 22.3497C205.086 16.4508 203.247 11.7871 200.194 8.49198C196.376 4.2602 190.364 2.05634 184.496 2.72816C176.733 3.64881 170.141 9.83563 168.826 17.4372L168.597 18.7702L167.291 18.4893C166.574 18.3347 165.845 18.2601 165.114 18.2601Z" fill="#1D4782"/>
<path d="M166.083 21.1766C160.357 21.1766 155.759 25.8403 155.759 31.645C155.759 37.4497 160.359 42.1133 166.083 42.1133C171.808 42.1133 176.363 37.4515 176.363 31.645C176.363 25.8385 171.766 21.1766 166.083 21.1766ZM173.339 33.7849H168.172V39.0244H163.95V33.7849H158.783V29.5033H163.95V24.2638H168.172V29.5033H173.339V33.7849Z" fill="#5094F7"/>
</g>
<defs>
<clipPath id="clip0_869_47">
<rect width="218" height="54" fill="white"/>
</clipPath>
</defs>
</svg>
