<svg width="37" height="34" viewBox="0 0 37 34" fill="none" xmlns="http://www.w3.org/2000/svg">
<path opacity="0.3" d="M35.7352 14.1623L33.9901 21.6055C32.4943 28.0338 29.5384 30.6336 23.9826 30.0994C23.0923 30.0282 22.1307 29.8679 21.0979 29.6186L18.1064 28.9063C10.6809 27.1435 8.38383 23.4753 10.1289 16.032L11.874 8.57091C12.2301 7.05733 12.6575 5.73962 13.1917 4.6534C15.2751 0.344144 18.8186 -0.813302 24.7661 0.59344L27.7399 1.28791C35.201 3.03298 37.4802 6.719 35.7352 14.1623Z" fill="#5094F7"/>
<path d="M23.9827 30.0996C22.8787 30.8474 21.4898 31.4707 19.7981 32.0227L16.9846 32.9487C9.91532 35.2279 6.19368 33.3226 3.8966 26.2533L1.61732 19.2196C-0.661956 12.1503 1.22557 8.41081 8.29489 6.13153L11.1084 5.20558C11.8385 4.97409 12.5329 4.77821 13.1918 4.65356C12.6576 5.73978 12.2302 7.05749 11.8741 8.57107L10.129 16.0321C8.38393 23.4754 10.681 27.1436 18.1065 28.9065L21.098 29.6188C22.1308 29.8681 23.0924 30.0283 23.9827 30.0996Z" fill="#1D4782"/>
<path d="M28.31 14.2871C28.2031 14.2871 28.0963 14.2693 27.9716 14.2515L19.3353 12.0613C18.623 11.8832 18.1957 11.1531 18.3737 10.4409C18.5518 9.72859 19.2819 9.30123 19.9942 9.4793L28.6305 11.6695C29.3428 11.8476 29.7701 12.5777 29.5921 13.29C29.4496 13.8776 28.8976 14.2871 28.31 14.2871Z" fill="#1D4782"/>
<path d="M23.0924 20.3055C22.9855 20.3055 22.8787 20.2876 22.754 20.2698L17.5722 18.9521C16.86 18.7741 16.4326 18.044 16.6107 17.3317C16.7887 16.6194 17.5188 16.1921 18.2311 16.3701L23.4129 17.6878C24.1252 17.8659 24.5525 18.596 24.3745 19.3083C24.232 19.9137 23.6978 20.3055 23.0924 20.3055Z" fill="#1D4782"/>
</svg>
