<svg width="42" height="41" viewBox="0 0 42 41" fill="none" xmlns="http://www.w3.org/2000/svg">
<g clip-path="url(#clip0_1272_3482)">
<path d="M41.8345 15.8207L27.6694 13.7624L21.3345 0.92749L14.9995 13.7624L0.834473 15.8207L9.83447 25.8158L7.68884 40.9226L21.3345 33.7624L34.9801 40.9226L33.082 25.8158L41.8345 15.8207Z" fill="#151A25"/>
<path d="M33.603 38.7413L21.4428 32.3433L9.27772 38.7413L11.603 25.1928L1.7583 15.6054L15.3554 13.6297L21.4379 1.30444L27.5204 13.6297L41.1224 15.6054L31.2826 25.1976L33.603 38.7462V38.7413ZM21.4379 29.6879L30.4767 34.4404L28.7534 24.3724L36.0641 17.2462L25.9573 15.7802L21.4379 6.61998L16.9185 15.7802L6.8117 17.2462L14.1272 24.3724L12.3991 34.4404L21.4379 29.6879Z" fill="url(#paint0_linear_1272_3482)"/>
<path d="M12.2209 28.2947L10.8325 36.383L21.4345 30.8047L32.0364 36.383L30.6481 28.2947C27.75 28.785 24.6529 29.0569 21.4345 29.0569C18.216 29.0569 15.1141 28.7899 12.2209 28.2947Z" fill="#F79F1E"/>
<path d="M33.9804 20.7107C30.1795 21.638 25.927 22.1575 21.4368 22.1575C16.9465 22.1575 12.694 21.638 8.89307 20.7107L12.8591 24.5801L12.2183 28.299C15.1164 28.7893 18.2135 29.0612 21.4319 29.0612C24.6503 29.0612 27.7474 28.7942 30.6455 28.299L30.0096 24.5801L33.9756 20.7107H33.9804Z" fill="url(#paint1_linear_1272_3482)"/>
<path d="M33.9804 20.7107C30.1795 21.638 25.927 22.1575 21.4368 22.1575C16.9465 22.1575 12.694 21.638 8.89307 20.7107L12.8591 24.5801L12.2183 28.299C15.1164 28.7893 18.2135 29.0612 21.4319 29.0612C24.6503 29.0612 27.7474 28.7942 30.6455 28.299L30.0096 24.5801L33.9756 20.7107H33.9804Z" fill="url(#paint2_linear_1272_3482)"/>
<path d="M26.7381 14.4919L21.4371 3.75269L16.1361 14.4919L4.28174 16.2154L8.89339 20.7111C12.6944 21.6384 16.9468 22.1578 21.4371 22.1578C25.9274 22.1578 30.1798 21.6384 33.9808 20.7111L38.5924 16.2154L26.7381 14.4919Z" fill="url(#paint3_linear_1272_3482)"/>
<path d="M26.7381 14.4919L21.4371 3.75269L16.1361 14.4919L4.28174 16.2154L8.89339 20.7111C12.6944 21.6384 16.9468 22.1578 21.4371 22.1578C25.9274 22.1578 30.1798 21.6384 33.9808 20.7111L38.5924 16.2154L26.7381 14.4919Z" fill="url(#paint4_linear_1272_3482)"/>
<path d="M26.7381 14.4919L21.4371 3.75269L16.1361 14.4919L4.28174 16.2154L8.89339 20.7111C12.6944 21.6384 16.9468 22.1578 21.4371 22.1578C25.9274 22.1578 30.1798 21.6384 33.9808 20.7111L38.5924 16.2154L26.7381 14.4919Z" fill="url(#paint5_linear_1272_3482)"/>
<path d="M23.9759 12.1047C23.9759 12.4348 23.7089 12.7018 23.3788 12.7018C23.0487 12.7018 22.7817 12.4348 22.7817 12.1047C22.7817 11.7746 23.0487 11.5125 23.3788 11.5125C23.7089 11.5125 23.9759 11.7794 23.9759 12.1047Z" fill="#FFFCE9"/>
<path d="M14.1361 33.635C14.1361 33.9651 13.8691 34.232 13.539 34.232C13.2089 34.232 12.9419 33.9651 12.9419 33.635C12.9419 33.3049 13.2089 33.0427 13.539 33.0427C13.8691 33.0427 14.1361 33.3097 14.1361 33.635Z" fill="#FFFCE9"/>
<path d="M30.9808 33.0363C30.9808 33.3615 30.7138 33.6285 30.3886 33.6285C30.0633 33.6285 29.7915 33.3615 29.7915 33.0363C29.7915 32.7111 30.0585 32.4392 30.3886 32.4392C30.7187 32.4392 30.9808 32.7062 30.9808 33.0363Z" fill="#FFFCE9"/>
<path d="M24.8298 14.0589C24.8298 14.2774 24.6502 14.457 24.4317 14.457C24.2133 14.457 24.0337 14.2774 24.0337 14.0589C24.0337 13.8405 24.2133 13.6609 24.4317 13.6609C24.6502 13.6609 24.8298 13.8405 24.8298 14.0589Z" fill="#FFFCE9"/>
<path d="M30.1892 31.1556C30.1892 31.3741 30.0144 31.5537 29.7911 31.5537C29.5678 31.5537 29.3931 31.3741 29.3931 31.1556C29.3931 30.9372 29.5727 30.7576 29.7911 30.7576C30.0096 30.7576 30.1892 30.9372 30.1892 31.1556Z" fill="#FFFCE9"/>
</g>
<defs>
<linearGradient id="paint0_linear_1272_3482" x1="13.0593" y1="6.14425" x2="32.3068" y2="39.4889" gradientUnits="userSpaceOnUse">
<stop stop-color="#FFB900"/>
<stop offset="1" stop-color="#EAAC07"/>
</linearGradient>
<linearGradient id="paint1_linear_1272_3482" x1="21.4368" y1="1.69867" x2="21.4368" y2="37.2467" gradientUnits="userSpaceOnUse">
<stop stop-color="#FFE002"/>
<stop offset="1" stop-color="#EAAC07"/>
</linearGradient>
<linearGradient id="paint2_linear_1272_3482" x1="21.4368" y1="20.7301" x2="21.4368" y2="29.0758" gradientUnits="userSpaceOnUse">
<stop stop-color="#FFCD02"/>
<stop offset="0.99" stop-color="#FFAD1F"/>
</linearGradient>
<linearGradient id="paint3_linear_1272_3482" x1="21.4371" y1="1.70389" x2="21.4371" y2="37.247" gradientUnits="userSpaceOnUse">
<stop stop-color="#FFE002"/>
<stop offset="1" stop-color="#EAAC07"/>
</linearGradient>
<linearGradient id="paint4_linear_1272_3482" x1="19.3691" y1="-4.76291" x2="21.8746" y2="20.6139" gradientUnits="userSpaceOnUse">
<stop stop-color="#EAAC07"/>
<stop offset="1" stop-color="#FFE002"/>
</linearGradient>
<linearGradient id="paint5_linear_1272_3482" x1="21.4371" y1="23.9445" x2="21.4371" y2="-1.29647" gradientUnits="userSpaceOnUse">
<stop offset="0.31" stop-color="#FFD31E"/>
<stop offset="0.54" stop-color="#FFD853"/>
<stop offset="0.74" stop-color="#FFDC7A"/>
<stop offset="0.9" stop-color="#FFDF92"/>
<stop offset="1" stop-color="#FFE09B"/>
</linearGradient>
<clipPath id="clip0_1272_3482">
<rect width="41" height="39.9951" fill="white" transform="translate(0.834473 0.92749)"/>
</clipPath>
</defs>
</svg>
