<svg width="37" height="33" viewBox="0 0 37 33" fill="none" xmlns="http://www.w3.org/2000/svg">
<g clip-path="url(#clip0_2723_414)">
<path d="M27.5 2.09448H18.5554L18.4406 2.23149H9.49604L0.5 13.1252L18.3931 32.8536L18.4525 32.9867L18.496 32.9671L18.5396 32.9515L17.9578 31.5149L18.5277 32.7714L18.504 32.8301L18.5396 32.791L18.5554 32.8301L18.6029 32.7166L36.5 12.9882L27.5 2.09448Z" fill="#151A25"/>
<path d="M18.599 30.4895L9.9552 11.4421H18.3892H26.8193L18.599 30.4895Z" fill="url(#paint0_linear_2723_414)"/>
<path d="M18.599 0.986816L9.9552 11.4421H18.3892H26.8193L18.599 0.986816Z" fill="url(#paint1_linear_2723_414)"/>
<path d="M26.7714 11.4421H35.8189L18.5471 30.4895L26.7714 11.4421Z" fill="url(#paint2_linear_2723_414)"/>
<path d="M18.5979 0.986816L26.7707 11.4421H35.8182L27.1823 0.986816H18.5979Z" fill="url(#paint3_linear_2723_414)"/>
<path d="M10.3193 11.5752H1.26782L18.5396 30.6186L10.3193 11.5752Z" fill="url(#paint4_linear_2723_414)"/>
<path d="M18.4921 1.11987L10.3193 11.5752H1.26782L9.90371 1.11987H18.4921Z" fill="url(#paint5_linear_2723_414)"/>
<path d="M18.5004 30.6383L16.3355 25.9175C15.6152 24.3439 14.8948 22.7704 14.1864 21.1929C12.7576 18.0379 11.3447 14.879 9.89617 11.7358L9.78931 11.5087L9.95158 11.2895C10.6046 10.4127 11.2656 9.54762 11.9423 8.69037C12.2827 8.2637 12.6191 7.83312 12.9674 7.41428L14.0043 6.14603L15.0532 4.88951L16.1178 3.64083C16.8342 2.81489 17.5545 1.99288 18.3065 1.19043L18.3777 1.24523C17.788 2.16902 17.1706 3.06933 16.5492 3.96963L15.6072 5.30835L14.6495 6.63532L13.6759 7.95447C13.3553 8.39288 13.0228 8.82737 12.6943 9.26187C12.0294 10.1269 11.3566 10.9881 10.6679 11.8375L10.7233 11.3913C12.0175 14.6011 13.3513 17.7952 14.6653 20.9932C15.3302 22.5903 15.9793 24.1952 16.6323 25.7962L18.5835 30.6069L18.5004 30.6422V30.6383Z" fill="#E4F3F4"/>
<path d="M1.26782 11.5752C1.26782 11.5752 1.40239 11.5674 1.65569 11.5478C1.90898 11.5322 2.28101 11.5009 2.75199 11.4774C3.6979 11.4226 5.04751 11.3521 6.66624 11.2934C7.47758 11.2621 8.35225 11.2269 9.28233 11.2073C10.2085 11.1838 11.19 11.1525 12.1992 11.1368C13.2124 11.1212 14.2573 11.0899 15.3219 11.0859C16.3866 11.0781 17.4631 11.0664 18.5435 11.0585C19.624 11.0585 20.7045 11.0585 21.7652 11.0585C22.8298 11.0546 23.8747 11.0781 24.8879 11.0859C25.9011 11.0938 26.8786 11.1173 27.8087 11.1368C28.7348 11.1525 29.6135 11.1799 30.4248 11.2034C32.0435 11.2503 33.3932 11.3091 34.3391 11.356C34.814 11.3756 35.1821 11.403 35.4354 11.4187C35.6887 11.4343 35.8232 11.4422 35.8232 11.4422C35.8232 11.4422 35.6887 11.45 35.4354 11.4696C35.1821 11.4852 34.81 11.5126 34.3391 11.54C33.3932 11.5948 32.0435 11.6653 30.4248 11.724C29.6135 11.7553 28.7388 11.7905 27.8087 11.814C26.8786 11.8414 25.9011 11.8688 24.8879 11.8845C23.8747 11.9001 22.8298 11.9314 21.7652 11.9354C20.7045 11.9432 19.624 11.9549 18.5435 11.9628C17.4631 11.9628 16.3826 11.9628 15.3219 11.9628C14.2573 11.9628 13.2124 11.9432 12.1992 11.9354C11.186 11.9275 10.2085 11.904 9.28233 11.8845C8.35225 11.8688 7.47758 11.8414 6.66624 11.8179C5.04751 11.771 3.6979 11.7122 2.75199 11.6653C2.28101 11.6457 1.90898 11.6183 1.65569 11.6026C1.40239 11.587 1.26782 11.5792 1.26782 11.5792V11.5752Z" fill="#E1F7F9"/>
<path d="M25.4612 3.07692C25.4612 3.40573 25.1921 3.6719 24.8596 3.6719C24.5272 3.6719 24.2581 3.40573 24.2581 3.07692C24.2581 2.74811 24.5272 2.48193 24.8596 2.48193C25.1921 2.48193 25.4612 2.74811 25.4612 3.07692Z" fill="#EFF4F4"/>
<path d="M27.4755 3.93832C27.4755 4.15753 27.2974 4.33367 27.0758 4.33367C26.8541 4.33367 26.676 4.15753 26.676 3.93832C26.676 3.71912 26.8541 3.54297 27.0758 3.54297C27.2974 3.54297 27.4755 3.71912 27.4755 3.93832Z" fill="#EFF4F4"/>
<path d="M8.25244 8.67444C8.25244 8.96801 8.01497 9.20288 7.71814 9.20288C7.42131 9.20288 7.18384 8.96801 7.18384 8.67444C7.18384 8.38086 7.42131 8.146 7.71814 8.146C8.01497 8.146 8.25244 8.38086 8.25244 8.67444Z" fill="#EFF4F4"/>
</g>
<defs>
<linearGradient id="paint0_linear_2723_414" x1="18.3813" y1="12.1076" x2="18.1839" y2="30.74" gradientUnits="userSpaceOnUse">
<stop offset="0.03" stop-color="#9DDAF5"/>
<stop offset="0.19" stop-color="#94D9F3"/>
<stop offset="0.43" stop-color="#7ED7F1"/>
<stop offset="0.73" stop-color="#59D5EC"/>
<stop offset="1" stop-color="#33D3E8"/>
</linearGradient>
<linearGradient id="paint1_linear_2723_414" x1="9.9552" y1="6.21642" x2="26.8193" y2="6.21642" gradientUnits="userSpaceOnUse">
<stop stop-color="#C3ECF5"/>
<stop offset="0.56" stop-color="#BDEAF2"/>
<stop offset="1" stop-color="#B5E7EE"/>
</linearGradient>
<linearGradient id="paint2_linear_2723_414" x1="21.1395" y1="22.7742" x2="28.8558" y2="13.9725" gradientUnits="userSpaceOnUse">
<stop stop-color="#9DDAF5"/>
<stop offset="0.17" stop-color="#97D9F4"/>
<stop offset="0.38" stop-color="#89D8F2"/>
<stop offset="0.6" stop-color="#70D7EF"/>
<stop offset="0.84" stop-color="#4ED4EB"/>
<stop offset="1" stop-color="#33D3E8"/>
</linearGradient>
<linearGradient id="paint3_linear_2723_414" x1="18.5979" y1="6.21642" x2="35.8182" y2="6.21642" gradientUnits="userSpaceOnUse">
<stop stop-color="#33D3E8"/>
<stop offset="0.27" stop-color="#59D5EC"/>
<stop offset="0.57" stop-color="#7ED7F1"/>
<stop offset="0.81" stop-color="#94D9F3"/>
<stop offset="0.97" stop-color="#9DDAF5"/>
</linearGradient>
<linearGradient id="paint4_linear_2723_414" x1="6.02508" y1="12.0527" x2="12.323" y2="25.1852" gradientUnits="userSpaceOnUse">
<stop stop-color="#66DEEE"/>
<stop offset="0.12" stop-color="#70DDEF"/>
<stop offset="0.45" stop-color="#89DBF2"/>
<stop offset="0.75" stop-color="#97DAF4"/>
<stop offset="1" stop-color="#9DDAF5"/>
</linearGradient>
<linearGradient id="paint5_linear_2723_414" x1="17.4552" y1="-0.426304" x2="2.7776" y2="13.412" gradientUnits="userSpaceOnUse">
<stop stop-color="#33D3E8"/>
<stop offset="0.27" stop-color="#59D5EC"/>
<stop offset="0.57" stop-color="#7ED7F1"/>
<stop offset="0.81" stop-color="#94D9F3"/>
<stop offset="0.97" stop-color="#9DDAF5"/>
</linearGradient>
<clipPath id="clip0_2723_414">
<rect width="36" height="32" fill="white" transform="translate(0.5 0.986816)"/>
</clipPath>
</defs>
</svg>
