<svg width="37" height="34" viewBox="0 0 37 34" fill="none" xmlns="http://www.w3.org/2000/svg">
<path opacity="0.3" d="M29.9836 31.0367C29.6541 31.0367 29.3246 30.8719 29.1598 30.7072C28.6655 30.2129 28.6655 29.389 29.1598 28.8947C31.9608 26.0937 33.4437 22.3041 33.4437 18.1849C33.4437 9.78187 26.6883 3.02646 18.2852 3.02646C9.88215 3.02646 3.12674 9.78187 3.12674 18.1849C3.12674 22.1393 4.60963 25.929 7.41066 28.8947C7.90496 29.389 7.90496 30.2129 7.41066 30.7072C6.91636 31.2015 6.09253 31.2015 5.59823 30.7072C2.30291 27.4118 0.490479 22.9632 0.490479 18.3497C0.490479 8.46374 8.56402 0.390198 18.2852 0.390198C28.0064 0.390198 36.08 8.29897 36.08 18.1849C36.08 22.7984 34.2675 27.2471 30.9722 30.5424C30.6427 30.8719 30.3132 31.0367 29.9836 31.0367Z" fill="#5094F7"/>
<path d="M18.2849 33.8375C21.8338 33.8375 24.7108 30.9606 24.7108 27.4117C24.7108 23.8627 21.8338 20.9858 18.2849 20.9858C14.736 20.9858 11.859 23.8627 11.859 27.4117C11.859 30.9606 14.736 33.8375 18.2849 33.8375Z" fill="#5094F7"/>
<path d="M24.8764 11.5944C23.064 11.5944 21.5811 13.0773 21.5811 14.8897V16.2079C21.5811 17.3612 22.5697 18.1851 23.5582 18.1851H24.8764C26.6888 18.1851 28.1717 16.7022 28.1717 14.8897C28.1717 13.0773 26.6888 11.5944 24.8764 11.5944Z" fill="#5094F7"/>
</svg>
