<svg width="45" height="44" viewBox="0 0 45 44" fill="none" xmlns="http://www.w3.org/2000/svg">
<mask id="mask0_869_475" style="mask-type:alpha" maskUnits="userSpaceOnUse" x="0" y="0" width="45" height="44">
<rect x="0.910156" y="0.728622" width="43.1011" height="43.1011" fill="#D9D9D9"/>
</mask>
<g mask="url(#mask0_869_475)">
<path d="M11.6855 36.6463C10.1889 36.6463 8.91684 36.1225 7.86925 35.0749C6.82165 34.0273 6.29785 32.7553 6.29785 31.2587C6.29785 29.7621 6.82165 28.4901 7.86925 27.4425C8.91684 26.3949 10.1889 25.8711 11.6855 25.8711C13.1821 25.8711 14.4541 26.3949 15.5017 27.4425C16.5493 28.4901 17.0731 29.7621 17.0731 31.2587C17.0731 32.7553 16.5493 34.0273 15.5017 35.0749C14.4541 36.1225 13.1821 36.6463 11.6855 36.6463ZM33.2361 36.6463C31.7395 36.6463 30.4674 36.1225 29.4198 35.0749C28.3722 34.0273 27.8484 32.7553 27.8484 31.2587C27.8484 29.7621 28.3722 28.4901 29.4198 27.4425C30.4674 26.3949 31.7395 25.8711 33.2361 25.8711C34.7326 25.8711 36.0047 26.3949 37.0523 27.4425C38.0999 28.4901 38.6237 29.7621 38.6237 31.2587C38.6237 32.7553 38.0999 34.0273 37.0523 35.0749C36.0047 36.1225 34.7326 36.6463 33.2361 36.6463ZM22.4608 18.6875C20.9642 18.6875 19.6921 18.1637 18.6445 17.1161C17.5969 16.0686 17.0731 14.7965 17.0731 13.2999C17.0731 11.8033 17.5969 10.5313 18.6445 9.48366C19.6921 8.43606 20.9642 7.91226 22.4608 7.91226C23.9573 7.91226 25.2294 8.43606 26.277 9.48366C27.3246 10.5313 27.8484 11.8033 27.8484 13.2999C27.8484 14.7965 27.3246 16.0686 26.277 17.1161C25.2294 18.1637 23.9573 18.6875 22.4608 18.6875Z" fill="#5094F7"/>
</g>
</svg>
