<svg width="199" height="49" viewBox="0 0 199 49" fill="none" xmlns="http://www.w3.org/2000/svg">
<path d="M16.9795 18.6729C19.1021 18.6729 21.0462 19.5129 22.4607 20.8422C24.0072 19.5145 25.9078 18.6745 28.0305 18.6745C32.6266 18.6745 36.3392 22.4321 36.3392 27.0267V36.1754C36.3392 37.6785 35.1033 38.9144 33.6437 38.9144C32.0537 38.9144 30.8145 37.6785 30.8145 36.1754V27.0267C30.8145 25.4367 29.577 24.1991 28.0305 24.1991C26.5708 24.1991 25.2898 25.4335 25.2898 27.0267V36.1754C25.2898 37.6785 24.0523 38.9144 22.4607 38.9144C20.9576 38.9144 19.7217 37.6785 19.7217 36.1754V27.0267C19.7217 25.4367 18.4842 24.1991 16.9811 24.1991C15.3911 24.1991 14.152 25.4335 14.152 27.0267V36.1738C14.152 37.6769 12.9144 38.9128 11.413 38.9128C9.91151 38.9128 8.62891 37.6769 8.62891 36.1738V27.025C8.62891 22.4305 12.3415 18.6729 16.9811 18.6729H16.9795Z" fill="white"/>
<path d="M49.0372 18.6738C54.6069 18.6738 59.1145 23.183 59.1145 28.7946V36.1764C59.1145 37.6795 57.9655 38.9154 56.3304 38.9154C55.3568 38.9154 54.5618 38.431 54.0758 37.636C52.5293 38.4294 50.8492 38.9154 49.0388 38.9154C43.4706 38.9154 38.918 34.4094 38.918 28.7946C38.918 23.1798 43.4706 18.6738 49.0388 18.6738H49.0372ZM49.0372 24.2001C46.4736 24.2001 44.441 26.2777 44.441 28.7946C44.441 31.3115 46.4736 33.3907 49.0372 33.3907C51.6007 33.3907 53.5898 31.3582 53.5898 28.7946C53.5898 26.231 51.5106 24.2001 49.0372 24.2001Z" fill="white"/>
<path d="M71.8517 18.6738C77.378 18.6738 81.8856 23.183 81.8856 28.7946C81.8856 34.4062 77.378 38.9154 71.8517 38.9154C66.3255 38.9154 61.6875 34.4094 61.6875 28.7946C61.6875 23.1798 66.1951 18.6738 71.8517 18.6738ZM71.8517 24.2001C69.2447 24.2001 67.2572 26.2777 67.2556 28.7946C67.2556 31.3582 69.2447 33.3907 71.8517 33.3907C74.4588 33.3907 76.361 31.3582 76.361 28.7946C76.361 26.231 74.3268 24.2001 71.8517 24.2001Z" fill="white"/>
<path d="M94.5794 18.6745C99.3976 18.6745 103.421 22.0781 104.435 26.6308C104.966 29.0624 104.214 30.7425 101.208 30.7425H90.3792C91.1307 32.2874 92.7223 33.393 94.5778 33.393C95.8154 33.393 96.9644 32.8635 97.761 32.0653C98.3355 31.5359 99.042 31.2269 99.7485 31.2269C100.5 31.2269 101.208 31.5359 101.694 32.0653C102.798 33.1258 102.798 34.8494 101.694 35.9984C99.9255 37.8105 97.3619 38.9144 94.5778 38.9144C88.9646 38.9144 84.457 34.4084 84.457 28.7936C84.457 23.1788 88.9646 18.6729 94.5778 18.6729L94.5794 18.6745ZM94.5794 24.2007C92.7239 24.2007 91.134 25.3498 90.3808 26.9398H98.6896C97.9831 25.3482 96.3915 24.2007 94.5794 24.2007Z" fill="white"/>
<path d="M116.54 18.6729C121.667 18.6729 125.866 22.8731 125.869 28.0437V36.1771C125.869 37.6801 124.588 38.9161 123.085 38.9161C121.582 38.9161 120.301 37.6801 120.301 36.1771V28.0437C120.301 25.8776 118.576 24.1991 116.543 24.1991C114.511 24.1991 112.742 25.8792 112.742 28.0437V36.1771C112.742 37.6801 111.504 38.9161 109.958 38.9161C108.411 38.9161 107.174 37.6801 107.174 36.1771V28.0437C107.174 22.8715 111.372 18.6729 116.543 18.6729H116.54Z" fill="white"/>
<path d="M2.91249 18.6738C4.50407 18.6738 5.74161 19.9564 5.74161 21.4579V36.1764C5.74161 37.6795 4.50407 38.9154 2.91249 38.9154C1.45287 38.9154 0.171875 37.6795 0.171875 36.1764V21.4579C0.171875 19.9548 1.45287 18.6738 2.91249 18.6738Z" fill="white"/>
<path d="M2.96109 11.7354C4.68624 11.7354 6.05414 13.063 6.05414 14.7415C6.05414 16.42 4.68302 17.7911 2.96109 17.7911C1.23915 17.7911 0 16.42 0 14.7415C0 13.063 1.28099 11.7354 2.96109 11.7354Z" fill="white"/>
<path d="M131.405 18.6736C132.996 18.6736 134.234 19.9562 134.234 21.4577V36.1762C134.234 37.6793 132.996 38.9152 131.405 38.9152C129.945 38.9152 128.664 37.6793 128.664 36.1762V21.4577C128.664 19.9546 129.945 18.6736 131.405 18.6736Z" fill="white"/>
<path d="M131.402 11.7354C133.128 11.7354 134.496 13.063 134.496 14.7415C134.496 16.42 133.124 17.7911 131.402 17.7911C129.681 17.7911 128.441 16.42 128.441 14.7415C128.441 13.063 129.722 11.7354 131.402 11.7354Z" fill="white"/>
<path d="M72.1685 43.0717C73.715 43.0717 75.1312 42.2333 75.968 40.9942C76.5442 40.1541 77.4277 39.623 78.3546 39.623C78.839 39.623 79.3266 39.7985 79.7692 40.064C81.0952 40.9475 81.4943 42.6276 80.6527 43.9536C78.839 46.7377 75.7025 48.5932 72.1653 48.5932C68.6281 48.5932 65.3596 46.7361 63.5476 43.9536C62.7526 42.6276 63.105 40.9475 64.4311 40.064C64.9171 39.7985 65.4047 39.623 65.8907 39.623C66.8193 39.623 67.6593 40.1525 68.2773 40.9942C69.0723 42.2317 70.5303 43.0717 72.1653 43.0717H72.1685Z" fill="white"/>
<path d="M150.243 42.565C145.45 42.565 140.791 39.7423 138.617 35.4986C136.34 31.4335 136.211 26.316 138.281 22.1319C140.68 16.8035 146.419 13.5286 151.989 14.153C153.796 6.83721 160.391 1.02126 168.094 0.121664C174.189 -0.56711 180.439 1.70359 184.411 6.04545C187.396 9.22379 189.252 13.5946 189.923 19.0388C193.536 19.9915 196.522 22.4312 197.844 25.558C199.683 29.4058 199.175 34.1967 196.545 37.7725C194.384 40.7835 190.555 42.6149 186.543 42.5376C179.664 42.5521 172.666 42.5537 165.901 42.5553C160.735 42.5553 155.569 42.5569 150.404 42.5634C150.35 42.5634 150.297 42.5634 150.244 42.5634L150.243 42.565ZM150.676 16.4318C146.467 16.4318 142.214 19.1 140.415 23.1135L140.395 23.1554C138.653 26.6636 138.76 30.9604 140.677 34.3673L140.7 34.4091C142.497 37.9334 146.39 40.2669 150.387 40.2138C155.568 40.2074 160.734 40.2058 165.901 40.2058C172.67 40.2058 179.668 40.2025 186.551 40.1881H186.577C189.828 40.2524 192.918 38.7976 194.644 36.3901C196.748 33.5304 197.174 29.5796 195.715 26.5477L195.689 26.4914C194.572 23.8232 191.865 21.7762 188.624 21.1486L187.765 20.9828L187.678 20.1122C187.152 14.8032 185.473 10.6062 182.687 7.64186C179.203 3.83268 173.717 1.85004 168.362 2.45513C161.278 3.28391 155.262 8.85043 154.063 15.6931L153.852 16.892L152.661 16.6394C152.008 16.501 151.342 16.4334 150.676 16.4334V16.4318Z" fill="white"/>
<path d="M151.559 19.0576C146.334 19.0576 142.139 23.2546 142.139 28.4784C142.139 33.7021 146.336 37.8991 151.559 37.8991C156.783 37.8991 160.94 33.7037 160.94 28.4784C160.94 23.253 156.745 19.0576 151.559 19.0576ZM158.182 30.4063H153.466V35.1215H149.612V30.4063H144.897V26.5521H149.612V21.8369H153.466V26.5521H158.182V30.4063Z" fill="white"/>
</svg>
