<svg width="90" height="90" viewBox="0 0 90 90" fill="none" xmlns="http://www.w3.org/2000/svg">
<circle cx="45" cy="45" r="45" fill="white"/>
<path d="M25.7158 65.2976C20.4646 65.2976 15.3588 62.1606 12.975 57.4454C10.4808 52.9275 10.3389 47.2419 12.6069 42.5924C15.2361 36.6704 21.525 33.0341 27.6281 33.7272C29.607 25.5978 36.8354 19.1355 45.2767 18.1349C51.9547 17.3706 58.8045 19.8926 63.1566 24.718C66.429 28.2496 68.4622 33.1069 69.1967 39.1569C73.1561 40.2162 76.4286 42.9266 77.8763 46.4012C79.892 50.6774 79.3346 56.0005 76.4531 59.9745C74.0851 63.3212 69.889 65.3562 65.4931 65.2691C57.9544 65.2851 50.2861 65.2869 42.8719 65.2887C37.2105 65.2887 31.549 65.2905 25.8894 65.2976C25.8315 65.2976 25.7719 65.2976 25.7141 65.2976H25.7158ZM26.1908 36.2599C21.5793 36.2599 16.9187 39.2244 14.9469 43.6837L14.9258 43.7299C13.0171 47.6293 13.1345 52.4032 15.2343 56.1889L15.2589 56.2351C17.229 60.1523 21.4952 62.7436 25.8736 62.6849C31.549 62.6778 37.2122 62.676 42.8736 62.676C50.2913 62.676 57.9614 62.6725 65.5018 62.6565H65.5299C69.0915 62.7276 72.4778 61.112 74.3708 58.4372C76.6757 55.2593 77.1419 50.8694 75.5434 47.4996L75.5154 47.4374C74.2919 44.4728 71.3263 42.1979 67.7752 41.5012L66.8339 41.3163L66.7393 40.3495C66.1626 34.4506 64.324 29.7869 61.2707 26.4918C57.4531 22.26 51.4412 20.0562 45.5729 20.728C37.8099 21.6486 31.2178 27.8354 29.9032 35.437L29.6736 36.77L28.3678 36.4892C27.6509 36.3345 26.9218 36.2599 26.1908 36.2599Z" fill="#1D4782"/>
<path d="M27.1602 39.1764C21.4339 39.1764 16.8364 43.8401 16.8364 49.6447C16.8364 55.4494 21.4357 60.1131 27.1602 60.1131C32.8847 60.1131 37.4402 55.4512 37.4402 49.6447C37.4402 43.8383 32.8427 39.1764 27.1602 39.1764ZM34.4166 51.7846H29.2495V57.0241H25.0271V51.7846H19.8599V47.5031H25.0271V42.2636H29.2495V47.5031H34.4166V51.7846Z" fill="#5094F7"/>
</svg>
